<?xml version="1.0" encoding="iso-8859-1"?>
<!-- Generator: Adobe Illustrator 19.0.0, SVG Export Plug-In . SVG Version: 6.00 Build 0)  -->
<svg xmlns="http://www.w3.org/2000/svg" xmlns:xlink="http://www.w3.org/1999/xlink" version="1.1" id="Capa_1" x="0px" y="0px" viewBox="0 0 512 512" style="enable-background:new 0 0 512 512;" xml:space="preserve">
<path style="fill:#42C8C6;" d="M427,226v115c46.869,0,85-38.131,85-85L427,226z"/>
<path style="fill:#81E3E2;" d="M427,256v-85c46.869,0,85,38.131,85,85H427z"/>
<path style="fill:#42C8C6;" d="M241.44,385.1C236.89,423.24,204.46,452,166,452c-41.91,0-76-34.09-76-76v-42.38H60V376  c0,58.45,47.55,106,106,106c53.65,0,98.88-40.13,105.23-93.35L241.44,385.1z"/>
<polygon style="fill:#FFC1A6;" points="427,256 427,447 367,429.38 367,256 "/>
<polygon style="fill:#FFDBCC;" points="427,65 427,256 367,256 367,82.62 "/>
<polygon style="fill:#FE5F1A;" points="367,82.62 367,256 15,256 15,186 "/>
<polygon style="fill:#F54100;" points="367,256 367,429.38 15,326 15,256 "/>
<polygon style="fill:#FE5F1A;" points="427,236.488 412,256 412,482 442,482 442,256 "/>
<rect x="412" y="30" style="fill:#FE834D;" width="30" height="226"/>
<polygon style="fill:#FE5F1A;" points="15,236.488 0,256 0,361 30,361 30,256 "/>
<rect y="151" style="fill:#FE834D;" width="30" height="105"/>
<g>
</g>
<g>
</g>
<g>
</g>
<g>
</g>
<g>
</g>
<g>
</g>
<g>
</g>
<g>
</g>
<g>
</g>
<g>
</g>
<g>
</g>
<g>
</g>
<g>
</g>
<g>
</g>
<g>
</g>
</svg>
